<?xml version="1.0" encoding="UTF-8"?>
<svg xmlns="http://www.w3.org/2000/svg" xmlns:xlink="http://www.w3.org/1999/xlink" width="100px" height="100px" viewBox="0 0 100 100" version="1.1">
<g id="surface1">
<path style=" stroke:none;fill-rule:nonzero;fill:rgb(0%,0%,0%);fill-opacity:1;" d="M 34.878906 31.761719 C 32.859375 32.480469 32.019531 32.980469 30.519531 34.398438 C 28.378906 36.421875 26.800781 39.199219 25.320312 43.621094 C 23.378906 49.398438 22.421875 54.101562 22.261719 58.601562 C 22.078125 63.898438 23.019531 66.660156 25.519531 68.121094 C 28.640625 69.960938 32.378906 68.121094 37.421875 62.28125 C 39.199219 60.199219 40.300781 59.421875 42.421875 58.679688 C 44.761719 57.878906 46.78125 57.601562 50.300781 57.601562 C 54.160156 57.601562 56.578125 58.039062 58.738281 59.101562 C 59.980469 59.699219 60.519531 60.179688 62.820312 62.640625 C 66.738281 66.800781 67.941406 67.78125 70.039062 68.441406 C 72.179688 69.101562 73.660156 68.839844 75.121094 67.539062 C 78.839844 64.261719 78.558594 55.199219 74.359375 43.019531 C 72.460938 37.519531 70.140625 34.28125 66.859375 32.539062 C 65.058594 31.601562 63.5 31.199219 61.558594 31.199219 C 60.199219 31.199219 59.519531 31.359375 56.558594 32.320312 C 52.261719 33.699219 50.980469 33.839844 47.421875 33.21875 C 46.058594 32.980469 43.980469 32.460938 42.820312 32.078125 C 41.101562 31.5 40.320312 31.339844 38.601562 31.28125 C 36.660156 31.179688 36.378906 31.21875 34.878906 31.761719 Z M 37.71875 41.679688 C 38.378906 42.339844 38.398438 42.398438 38.398438 43.980469 L 38.398438 45.601562 L 40.078125 45.601562 C 41.980469 45.601562 42.660156 45.941406 42.898438 47.019531 C 43.238281 48.539062 42.179688 49.398438 39.941406 49.398438 L 38.441406 49.398438 L 38.378906 51.121094 C 38.300781 52.699219 38.261719 52.859375 37.738281 53.320312 C 37.140625 53.839844 36.078125 53.960938 35.359375 53.578125 C 34.761719 53.261719 34.398438 52.179688 34.398438 50.699219 L 34.398438 49.398438 L 32.921875 49.398438 C 31.621094 49.398438 31.359375 49.339844 30.839844 48.898438 C 30.058594 48.261719 29.878906 47.421875 30.28125 46.621094 C 30.71875 45.761719 31.160156 45.601562 32.859375 45.601562 L 34.339844 45.601562 L 34.441406 43.898438 C 34.5 42.601562 34.621094 42.121094 34.921875 41.78125 C 35.800781 40.800781 36.820312 40.78125 37.71875 41.679688 Z M 67.398438 42.21875 C 68.339844 42.761719 68.800781 43.539062 68.800781 44.640625 C 68.800781 47.601562 64.921875 48.460938 63.539062 45.800781 C 62.859375 44.5 63.460938 42.820312 64.839844 42.140625 C 65.738281 41.699219 66.5 41.71875 67.398438 42.21875 Z M 62.199219 47.421875 C 63.140625 47.960938 63.601562 48.738281 63.601562 49.839844 C 63.601562 51.601562 62.339844 52.71875 60.558594 52.558594 C 57.761719 52.28125 57.121094 48.578125 59.640625 47.339844 C 60.539062 46.898438 61.300781 46.921875 62.199219 47.421875 Z M 62.199219 47.421875 "/>
<path style=" stroke:none;fill-rule:nonzero;fill:rgb(0%,0%,0%);fill-opacity:1;" d="M 31.800781 70.941406 L 31.800781 72.398438 L 32.898438 72.398438 C 33.738281 72.398438 34 72.339844 34 72.101562 C 34 71.878906 33.761719 71.800781 33.078125 71.800781 L 32.179688 71.800781 L 32.238281 70.941406 C 32.300781 70.101562 32.300781 70.101562 33.160156 70.039062 C 34.441406 69.941406 34.238281 69.5 32.898438 69.5 L 31.800781 69.5 Z M 31.800781 70.941406 "/>
<path style=" stroke:none;fill-rule:nonzero;fill:rgb(0%,0%,0%);fill-opacity:1;" d="M 35.398438 70.601562 C 35.398438 71.261719 35.480469 71.800781 35.601562 71.800781 C 35.71875 71.800781 35.800781 71.261719 35.800781 70.601562 C 35.800781 69.941406 35.71875 69.398438 35.601562 69.398438 C 35.480469 69.398438 35.398438 69.941406 35.398438 70.601562 Z M 35.398438 70.601562 "/>
<path style=" stroke:none;fill-rule:nonzero;fill:rgb(0%,0%,0%);fill-opacity:1;" d="M 37.71875 69.539062 C 37.660156 69.601562 37.601562 70.140625 37.601562 70.738281 L 37.601562 71.800781 L 36.800781 71.800781 C 36.21875 71.800781 36 71.878906 36 72.101562 C 36 72.320312 36.21875 72.398438 36.800781 72.398438 C 37.378906 72.398438 37.601562 72.320312 37.601562 72.101562 C 37.601562 71.941406 37.738281 71.800781 37.898438 71.800781 C 38.121094 71.800781 38.199219 71.539062 38.199219 70.71875 C 38.199219 69.699219 38.019531 69.238281 37.71875 69.539062 Z M 37.71875 69.539062 "/>
<path style=" stroke:none;fill-rule:nonzero;fill:rgb(0%,0%,0%);fill-opacity:1;" d="M 38.941406 69.519531 C 38.859375 69.601562 38.800781 70.28125 38.800781 71.039062 C 38.800781 72.121094 38.859375 72.398438 39.101562 72.398438 C 39.320312 72.398438 39.398438 72.160156 39.398438 71.5 C 39.398438 70.839844 39.480469 70.601562 39.699219 70.601562 C 39.859375 70.601562 40 70.738281 40 70.898438 C 40 71.058594 40.140625 71.199219 40.300781 71.199219 C 40.460938 71.199219 40.601562 71.058594 40.601562 70.898438 C 40.601562 70.738281 40.738281 70.601562 40.898438 70.601562 C 41.121094 70.601562 41.199219 70.839844 41.199219 71.5 C 41.199219 72.160156 41.28125 72.398438 41.5 72.398438 C 41.738281 72.398438 41.800781 72.121094 41.800781 71.019531 C 41.800781 69.679688 41.539062 69.019531 41.28125 69.679688 C 41.21875 69.859375 41.039062 70 40.878906 70 C 40.71875 70 40.601562 70.140625 40.601562 70.300781 C 40.601562 70.460938 40.460938 70.601562 40.300781 70.601562 C 40.140625 70.601562 40 70.460938 40 70.300781 C 40 70.140625 39.898438 70 39.78125 70 C 39.640625 70 39.441406 69.859375 39.320312 69.679688 C 39.199219 69.519531 39.019531 69.441406 38.941406 69.519531 Z M 38.941406 69.519531 "/>
<path style=" stroke:none;fill-rule:nonzero;fill:rgb(0%,0%,0%);fill-opacity:1;" d="M 63.058594 69.539062 L 61.800781 69.621094 L 61.800781 72.398438 L 63.199219 72.398438 C 64.320312 72.398438 64.601562 72.339844 64.601562 72.101562 C 64.601562 71.859375 64.339844 71.800781 63.398438 71.800781 C 62.460938 71.800781 62.199219 71.738281 62.199219 71.5 C 62.199219 71.28125 62.441406 71.199219 63.101562 71.199219 C 63.761719 71.199219 64 71.121094 64 70.898438 C 64 70.679688 63.761719 70.601562 63.078125 70.601562 C 61.699219 70.601562 62.039062 70.121094 63.460938 70.039062 C 64.300781 70 64.601562 69.898438 64.601562 69.699219 C 64.601562 69.539062 64.539062 69.421875 64.460938 69.441406 C 64.359375 69.460938 63.738281 69.5 63.058594 69.539062 Z M 63.058594 69.539062 "/>
<path style=" stroke:none;fill-rule:nonzero;fill:rgb(0%,0%,0%);fill-opacity:1;" d="M 66 69.738281 C 66 69.921875 66.359375 70 67.101562 70 C 68.519531 70 68.519531 69.660156 67.101562 69.558594 C 66.320312 69.519531 66 69.578125 66 69.738281 Z M 66 69.738281 "/>
<path style=" stroke:none;fill-rule:nonzero;fill:rgb(0%,0%,0%);fill-opacity:1;" d="M 42.398438 71 C 42.398438 71.800781 42.480469 72.398438 42.601562 72.398438 C 42.71875 72.398438 42.800781 72 42.800781 71.5 C 42.800781 70.839844 42.878906 70.601562 43.101562 70.601562 C 43.261719 70.601562 43.398438 70.460938 43.398438 70.300781 C 43.398438 70.140625 43.261719 70 43.101562 70 C 42.941406 70 42.800781 69.898438 42.800781 69.800781 C 42.800781 69.679688 42.71875 69.601562 42.601562 69.601562 C 42.480469 69.601562 42.398438 70.199219 42.398438 71 Z M 42.398438 71 "/>
<path style=" stroke:none;fill-rule:nonzero;fill:rgb(0%,0%,0%);fill-opacity:1;" d="M 44.800781 69.800781 C 44.800781 69.898438 44.660156 70 44.5 70 C 44.339844 70 44.199219 70.140625 44.199219 70.300781 C 44.199219 70.460938 44.339844 70.601562 44.5 70.601562 C 44.71875 70.601562 44.800781 70.839844 44.800781 71.5 C 44.800781 72 44.898438 72.398438 45 72.398438 C 45.121094 72.398438 45.199219 71.800781 45.199219 71 C 45.199219 70.199219 45.121094 69.601562 45 69.601562 C 44.898438 69.601562 44.800781 69.679688 44.800781 69.800781 Z M 44.800781 69.800781 "/>
<path style=" stroke:none;fill-rule:nonzero;fill:rgb(0%,0%,0%);fill-opacity:1;" d="M 46 70.101562 C 46 70.378906 46.101562 70.601562 46.199219 70.601562 C 46.320312 70.601562 46.398438 70.378906 46.398438 70.101562 C 46.398438 69.820312 46.320312 69.601562 46.199219 69.601562 C 46.101562 69.601562 46 69.820312 46 70.101562 Z M 46 70.101562 "/>
<path style=" stroke:none;fill-rule:nonzero;fill:rgb(0%,0%,0%);fill-opacity:1;" d="M 48.199219 70.101562 C 48.199219 70.378906 48.121094 70.601562 48 70.601562 C 47.898438 70.601562 47.800781 70.738281 47.800781 70.898438 C 47.800781 71.058594 47.898438 71.199219 48 71.199219 C 48.121094 71.199219 48.199219 71.058594 48.199219 70.898438 C 48.199219 70.738281 48.339844 70.601562 48.5 70.601562 C 48.679688 70.601562 48.800781 70.421875 48.800781 70.101562 C 48.800781 69.78125 48.679688 69.601562 48.5 69.601562 C 48.320312 69.601562 48.199219 69.78125 48.199219 70.101562 Z M 48.199219 70.101562 "/>
<path style=" stroke:none;fill-rule:nonzero;fill:rgb(0%,0%,0%);fill-opacity:1;" d="M 51.800781 69.800781 C 51.800781 69.898438 52.300781 70 52.898438 70 C 53.5 70 54 69.898438 54 69.800781 C 54 69.679688 53.5 69.601562 52.898438 69.601562 C 52.300781 69.601562 51.800781 69.679688 51.800781 69.800781 Z M 51.800781 69.800781 "/>
<path style=" stroke:none;fill-rule:nonzero;fill:rgb(0%,0%,0%);fill-opacity:1;" d="M 55.398438 69.800781 C 55.398438 69.898438 55.761719 70 56.199219 70 C 56.640625 70 57 69.898438 57 69.800781 C 57 69.679688 56.640625 69.601562 56.199219 69.601562 C 55.761719 69.601562 55.398438 69.679688 55.398438 69.800781 Z M 55.398438 69.800781 "/>
<path style=" stroke:none;fill-rule:nonzero;fill:rgb(0%,0%,0%);fill-opacity:1;" d="M 58.199219 71 C 58.199219 72.121094 58.261719 72.398438 58.5 72.398438 C 58.71875 72.398438 58.800781 72.160156 58.800781 71.5 C 58.800781 70.839844 58.878906 70.601562 59.101562 70.601562 C 59.261719 70.601562 59.398438 70.738281 59.398438 70.898438 C 59.398438 71.058594 59.539062 71.199219 59.699219 71.199219 C 59.859375 71.199219 60 71.058594 60 70.898438 C 60 70.738281 60.140625 70.601562 60.300781 70.601562 C 60.519531 70.601562 60.601562 70.839844 60.601562 71.5 C 60.601562 72.160156 60.679688 72.398438 60.898438 72.398438 C 61.140625 72.398438 61.199219 72.121094 61.199219 71 C 61.199219 69.878906 61.140625 69.601562 60.898438 69.601562 C 60.738281 69.601562 60.601562 69.679688 60.601562 69.800781 C 60.601562 69.898438 60.460938 70 60.300781 70 C 60.140625 70 60 70.140625 60 70.300781 C 60 70.460938 59.859375 70.601562 59.699219 70.601562 C 59.539062 70.601562 59.398438 70.460938 59.398438 70.300781 C 59.398438 70.140625 59.261719 70 59.101562 70 C 58.941406 70 58.800781 69.898438 58.800781 69.800781 C 58.800781 69.679688 58.660156 69.601562 58.5 69.601562 C 58.261719 69.601562 58.199219 69.878906 58.199219 71 Z M 58.199219 71 "/>
<path style=" stroke:none;fill-rule:nonzero;fill:rgb(0%,0%,0%);fill-opacity:1;" d="M 34.199219 70.898438 C 34.199219 71.398438 34.300781 71.800781 34.398438 71.800781 C 34.519531 71.800781 34.601562 71.398438 34.601562 70.898438 C 34.601562 70.398438 34.519531 70 34.398438 70 C 34.300781 70 34.199219 70.398438 34.199219 70.898438 Z M 34.199219 70.898438 "/>
<path style=" stroke:none;fill-rule:nonzero;fill:rgb(0%,0%,0%);fill-opacity:1;" d="M 51.199219 70.878906 C 51.199219 71.558594 51.28125 71.800781 51.5 71.800781 C 51.660156 71.800781 51.800781 71.941406 51.800781 72.101562 C 51.800781 72.339844 52.058594 72.398438 52.898438 72.398438 L 54 72.398438 L 54 70.601562 L 53.199219 70.601562 C 52.621094 70.601562 52.398438 70.679688 52.398438 70.898438 C 52.398438 71.101562 52.601562 71.199219 53 71.199219 C 53.398438 71.199219 53.601562 71.300781 53.601562 71.5 C 53.601562 71.71875 53.359375 71.800781 52.71875 71.800781 L 51.820312 71.800781 L 51.761719 70.960938 C 51.679688 69.78125 51.199219 69.699219 51.199219 70.878906 Z M 51.199219 70.878906 "/>
<path style=" stroke:none;fill-rule:nonzero;fill:rgb(0%,0%,0%);fill-opacity:1;" d="M 54.800781 71.199219 C 54.800781 71.859375 54.878906 72.398438 55 72.398438 C 55.121094 72.398438 55.199219 72.261719 55.199219 72.101562 C 55.199219 71.878906 55.441406 71.800781 56.101562 71.800781 C 56.761719 71.800781 57 71.878906 57 72.101562 C 57 72.261719 57.140625 72.398438 57.300781 72.398438 C 57.539062 72.398438 57.601562 72.140625 57.601562 71.179688 C 57.601562 70.300781 57.539062 69.980469 57.359375 70.039062 C 57.21875 70.101562 57.078125 70.378906 57.039062 70.660156 C 56.980469 71.160156 56.898438 71.199219 56.078125 71.199219 C 55.238281 71.199219 55.199219 71.179688 55.199219 70.601562 C 55.199219 70.261719 55.121094 70 55 70 C 54.878906 70 54.800781 70.539062 54.800781 71.199219 Z M 54.800781 71.199219 "/>
<path style=" stroke:none;fill-rule:nonzero;fill:rgb(0%,0%,0%);fill-opacity:1;" d="M 65.398438 70.300781 C 65.398438 70.460938 65.5 70.601562 65.601562 70.601562 C 65.71875 70.601562 65.800781 70.460938 65.800781 70.300781 C 65.800781 70.140625 65.71875 70 65.601562 70 C 65.5 70 65.398438 70.140625 65.398438 70.300781 Z M 65.398438 70.300781 "/>
<path style=" stroke:none;fill-rule:nonzero;fill:rgb(0%,0%,0%);fill-opacity:1;" d="M 43.601562 70.898438 C 43.601562 71.058594 43.699219 71.199219 43.800781 71.199219 C 43.921875 71.199219 44 71.058594 44 70.898438 C 44 70.738281 43.921875 70.601562 43.800781 70.601562 C 43.699219 70.601562 43.601562 70.738281 43.601562 70.898438 Z M 43.601562 70.898438 "/>
<path style=" stroke:none;fill-rule:nonzero;fill:rgb(0%,0%,0%);fill-opacity:1;" d="M 46.601562 70.898438 C 46.601562 71.058594 46.699219 71.199219 46.800781 71.199219 C 46.921875 71.199219 47 71.058594 47 70.898438 C 47 70.738281 46.921875 70.601562 46.800781 70.601562 C 46.699219 70.601562 46.601562 70.738281 46.601562 70.898438 Z M 46.601562 70.898438 "/>
<path style=" stroke:none;fill-rule:nonzero;fill:rgb(0%,0%,0%);fill-opacity:1;" d="M 66 70.898438 C 66 71.121094 66.21875 71.199219 66.800781 71.199219 C 67.378906 71.199219 67.601562 71.121094 67.601562 70.898438 C 67.601562 70.679688 67.378906 70.601562 66.800781 70.601562 C 66.21875 70.601562 66 70.679688 66 70.898438 Z M 66 70.898438 "/>
<path style=" stroke:none;fill-rule:nonzero;fill:rgb(0%,0%,0%);fill-opacity:1;" d="M 47.199219 71.800781 C 47.199219 72.121094 47.300781 72.398438 47.398438 72.398438 C 47.519531 72.398438 47.601562 72.121094 47.601562 71.800781 C 47.601562 71.460938 47.519531 71.199219 47.398438 71.199219 C 47.300781 71.199219 47.199219 71.460938 47.199219 71.800781 Z M 47.199219 71.800781 "/>
<path style=" stroke:none;fill-rule:nonzero;fill:rgb(0%,0%,0%);fill-opacity:1;" d="M 67.679688 71.5 C 67.578125 71.71875 67.261719 71.800781 66.480469 71.800781 C 65.660156 71.800781 65.398438 71.878906 65.398438 72.101562 C 65.398438 72.339844 65.660156 72.398438 66.5 72.398438 C 67.339844 72.398438 67.601562 72.339844 67.601562 72.101562 C 67.601562 71.941406 67.738281 71.800781 67.898438 71.800781 C 68.058594 71.800781 68.199219 71.660156 68.199219 71.5 C 68.199219 71.339844 68.101562 71.199219 68 71.199219 C 67.878906 71.199219 67.738281 71.339844 67.679688 71.5 Z M 67.679688 71.5 "/>
</g>
</svg>
