<?xml version="1.0" standalone="no"?>
<!DOCTYPE svg PUBLIC "-//W3C//DTD SVG 20010904//EN"
 "http://www.w3.org/TR/2001/REC-SVG-20010904/DTD/svg10.dtd">
<svg version="1.0" xmlns="http://www.w3.org/2000/svg"
 width="500.000000pt" height="500.000000pt" viewBox="0 0 500.000000 500.000000"
 preserveAspectRatio="xMidYMid meet">

<g transform="translate(0.000000,500.000000) scale(0.100000,-0.100000)"
fill="#000000" stroke="none">
<path d="M1744 3412 c-101 -36 -143 -61 -218 -132 -107 -101 -186 -240 -260
-461 -97 -289 -145 -524 -153 -749 -9 -265 38 -403 163 -476 156 -92 343 0
595 292 89 104 144 143 250 180 117 40 218 54 394 54 193 0 314 -22 422 -75
62 -30 89 -54 204 -177 196 -208 256 -257 361 -290 107 -33 181 -20 254 45
186 164 172 617 -38 1226 -95 275 -211 437 -375 524 -90 47 -168 67 -265 67
-68 0 -102 -8 -250 -56 -215 -69 -279 -76 -457 -45 -68 12 -172 38 -230 57
-86 29 -125 37 -211 40 -97 5 -111 3 -186 -24z m142 -496 c33 -33 34 -36 34
-115 l0 -81 84 0 c95 0 129 -17 141 -71 17 -76 -36 -119 -148 -119 l-75 0 -3
-86 c-4 -79 -6 -87 -32 -110 -30 -26 -83 -32 -119 -13 -30 16 -48 70 -48 144
l0 65 -74 0 c-65 0 -78 3 -104 25 -39 32 -48 74 -28 114 22 43 44 51 129 51
l74 0 5 85 c3 65 9 89 24 106 44 49 95 50 140 5z m1484 -27 c47 -27 70 -66 70
-121 0 -148 -194 -191 -263 -58 -34 65 -4 149 65 183 45 22 83 21 128 -4z
m-260 -260 c47 -27 70 -66 70 -121 0 -88 -63 -144 -152 -136 -140 14 -172 199
-46 261 45 22 83 21 128 -4z"/>
<path d="M1590 1453 l0 -73 55 0 c42 0 55 3 55 15 0 11 -12 15 -46 15 l-45 0
3 43 c3 42 3 42 46 45 64 5 54 27 -13 27 l-55 0 0 -72z"/>
<path d="M1770 1470 c0 -33 4 -60 10 -60 6 0 10 27 10 60 0 33 -4 60 -10 60
-6 0 -10 -27 -10 -60z"/>
<path d="M1886 1523 c-3 -3 -6 -30 -6 -60 l0 -53 -40 0 c-29 0 -40 -4 -40 -15
0 -11 11 -15 40 -15 29 0 40 4 40 15 0 8 7 15 15 15 11 0 15 13 15 54 0 51 -9
74 -24 59z"/>
<path d="M1947 1524 c-4 -4 -7 -38 -7 -76 0 -54 3 -68 15 -68 11 0 15 12 15
45 0 33 4 45 15 45 8 0 15 -7 15 -15 0 -8 7 -15 15 -15 8 0 15 7 15 15 0 8 7
15 15 15 11 0 15 -12 15 -45 0 -33 4 -45 15 -45 12 0 15 14 15 69 0 67 -13
100 -26 67 -3 -9 -12 -16 -20 -16 -8 0 -14 -7 -14 -15 0 -8 -7 -15 -15 -15 -8
0 -15 7 -15 15 0 8 -5 15 -11 15 -7 0 -17 7 -23 16 -6 8 -15 12 -19 8z"/>
<path d="M3153 1523 l-63 -4 0 -69 0 -70 70 0 c56 0 70 3 70 15 0 12 -13 15
-60 15 -47 0 -60 3 -60 15 0 11 12 15 45 15 33 0 45 4 45 15 0 11 -12 15 -46
15 -69 0 -52 24 19 28 42 2 57 7 57 17 0 8 -3 14 -7 13 -5 -1 -36 -3 -70 -5z"/>
<path d="M3300 1513 c0 -9 18 -13 55 -13 71 0 71 17 0 22 -39 2 -55 -1 -55 -9z"/>
<path d="M2120 1450 c0 -40 4 -70 10 -70 6 0 10 20 10 45 0 33 4 45 15 45 8 0
15 7 15 15 0 8 -7 15 -15 15 -8 0 -15 5 -15 10 0 6 -4 10 -10 10 -6 0 -10 -30
-10 -70z"/>
<path d="M2240 1510 c0 -5 -7 -10 -15 -10 -8 0 -15 -7 -15 -15 0 -8 7 -15 15
-15 11 0 15 -12 15 -45 0 -25 5 -45 10 -45 6 0 10 30 10 70 0 40 -4 70 -10 70
-5 0 -10 -4 -10 -10z"/>
<path d="M2300 1495 c0 -14 5 -25 10 -25 6 0 10 11 10 25 0 14 -4 25 -10 25
-5 0 -10 -11 -10 -25z"/>
<path d="M2410 1495 c0 -14 -4 -25 -10 -25 -5 0 -10 -7 -10 -15 0 -8 5 -15 10
-15 6 0 10 7 10 15 0 8 7 15 15 15 9 0 15 9 15 25 0 16 -6 25 -15 25 -9 0 -15
-9 -15 -25z"/>
<path d="M2590 1510 c0 -5 25 -10 55 -10 30 0 55 5 55 10 0 6 -25 10 -55 10
-30 0 -55 -4 -55 -10z"/>
<path d="M2770 1510 c0 -5 18 -10 40 -10 22 0 40 5 40 10 0 6 -18 10 -40 10
-22 0 -40 -4 -40 -10z"/>
<path d="M2910 1450 c0 -56 3 -70 15 -70 11 0 15 12 15 45 0 33 4 45 15 45 8
0 15 -7 15 -15 0 -8 7 -15 15 -15 8 0 15 7 15 15 0 8 7 15 15 15 11 0 15 -12
15 -45 0 -33 4 -45 15 -45 12 0 15 14 15 70 0 56 -3 70 -15 70 -8 0 -15 -4
-15 -10 0 -5 -7 -10 -15 -10 -8 0 -15 -7 -15 -15 0 -8 -7 -15 -15 -15 -8 0
-15 7 -15 15 0 8 -7 15 -15 15 -8 0 -15 5 -15 10 0 6 -7 10 -15 10 -12 0 -15
-14 -15 -70z"/>
<path d="M1710 1455 c0 -25 5 -45 10 -45 6 0 10 20 10 45 0 25 -4 45 -10 45
-5 0 -10 -20 -10 -45z"/>
<path d="M2560 1456 c0 -34 4 -46 15 -46 8 0 15 -7 15 -15 0 -12 13 -15 55
-15 l55 0 0 45 0 45 -40 0 c-29 0 -40 -4 -40 -15 0 -10 10 -15 30 -15 20 0 30
-5 30 -15 0 -11 -12 -15 -44 -15 l-45 0 -3 42 c-4 59 -28 63 -28 4z"/>
<path d="M2740 1440 c0 -33 4 -60 10 -60 6 0 10 7 10 15 0 11 12 15 45 15 33
0 45 -4 45 -15 0 -8 7 -15 15 -15 12 0 15 13 15 61 0 44 -3 60 -12 57 -7 -3
-14 -17 -16 -31 -3 -25 -7 -27 -48 -27 -42 0 -44 1 -44 30 0 17 -4 30 -10 30
-6 0 -10 -27 -10 -60z"/>
<path d="M3270 1485 c0 -8 5 -15 10 -15 6 0 10 7 10 15 0 8 -4 15 -10 15 -5 0
-10 -7 -10 -15z"/>
<path d="M2180 1455 c0 -8 5 -15 10 -15 6 0 10 7 10 15 0 8 -4 15 -10 15 -5 0
-10 -7 -10 -15z"/>
<path d="M2330 1455 c0 -8 5 -15 10 -15 6 0 10 7 10 15 0 8 -4 15 -10 15 -5 0
-10 -7 -10 -15z"/>
<path d="M3300 1455 c0 -11 11 -15 40 -15 29 0 40 4 40 15 0 11 -11 15 -40 15
-29 0 -40 -4 -40 -15z"/>
<path d="M2360 1410 c0 -16 5 -30 10 -30 6 0 10 14 10 30 0 17 -4 30 -10 30
-5 0 -10 -13 -10 -30z"/>
<path d="M3384 1425 c-5 -11 -21 -15 -60 -15 -41 0 -54 -4 -54 -15 0 -12 13
-15 55 -15 42 0 55 3 55 15 0 8 7 15 15 15 8 0 15 7 15 15 0 8 -5 15 -10 15
-6 0 -13 -7 -16 -15z"/>
</g>
</svg>
